<?xml version="1.0" encoding="UTF-8"?><svg id="a" xmlns="http://www.w3.org/2000/svg" viewBox="0 0 1480.39 248.37"><defs><style>.b{fill:#fdbe2b;}</style></defs><path class="b" d="M395.5,95.37c0-18.17,14.35-36.03,42.44-36.03h80.6l-7.63,25.19h-72.67c-8.7,0-12.98,5.49-12.98,10.84s4.43,10.69,12.98,10.69h40.91c27.63,0,41.98,17.86,41.98,36.03s-13.59,35.72-41.98,35.72h-83.66l7.63-25.19h75.72c8.55,0,12.98-5.04,12.98-10.53s-4.27-10.99-12.98-10.99h-40.91c-28.55,0-42.44-17.86-42.44-35.72Z"/><path class="b" d="M566.32,94.31v20.91h55.11c8.55,0,12.98-7.79,12.98-15.57s-4.27-15.11-12.98-15.11h-83.35l5.42-17.9c1.31-4.33,5.3-7.29,9.83-7.29h66.88c28.7,0,43.97,21.07,43.97,41.67s-14.05,39.39-43.97,39.39h-53.89v37.4h-28.24V101.94l28.24-7.63Z"/><path class="b" d="M704.76,94.31v20.91h50.53c8.55,0,12.98-7.79,12.98-15.57s-4.27-15.11-12.98-15.11h-78.77l5.42-17.9c1.31-4.33,5.3-7.29,9.83-7.29h63.82c27.78,0,42.44,21.07,42.44,41.67,0,15.57-8.4,31.14-25.95,36.94l29.46,39.84h-24.86c-5.27,0-10.21-2.59-13.2-6.93l-21.02-30.47h-37.71v37.4h-28.24V101.94l28.24-7.63Z"/><path class="b" d="M874.66,180.4c-37.86,0-69.31-20-69.31-61.83s31.45-61.83,69.31-61.83,71.29,18.78,71.29,61.83-32.21,61.83-71.29,61.83Zm1.37-25.65c26.41,0,40.15-10.69,40.15-36.18s-13.74-36.18-40.15-36.18-40.91,9.92-40.91,36.18,13.59,36.18,40.91,36.18Z"/><path class="b" d="M1077.53,59.35l-7.63,25.19h-65.03c-15.57,0-23.66,17.55-23.66,34.8s7.63,33.28,23.66,33.28h72.67l-7.63,25.19h-68.39c-32.97,0-50.07-30.38-50.07-60.3s16.33-58.16,50.07-58.16h76.02Z"/><path class="b" d="M1205.29,59.35l-64.12,57.86,67.17,60.6h-35.64c-4.07,0-7.99-1.55-10.96-4.33l-43.61-40.85v45.19h-28.24V71.79c0-4.64,3.11-8.71,7.59-9.92l20.65-5.58v48.39l48.24-45.34h38.93Z"/><path class="b" d="M1248.48,152.62h86.4l-7.63,25.19h-107.01V69.62c0-5.67,4.6-10.27,10.27-10.27h104.37l-7.63,25.19h-78.77v21.52h73.43v25.19h-73.43v21.37Z"/><path class="b" d="M1352.78,59.35h113.53l-7.63,25.19h-44.27v93.27h-28.24V84.54h-43.66v-14.92c0-5.67,4.6-10.27,10.27-10.27Z"/><g><path class="b" d="M99.23,186.42c9.44-.08,18.9-.08,28.34-.08h10.29c6.02,0,12.01,0,18.03,.02,19.23,0,38.45-.06,57.68,.06,3.18,.02,5.27-.73,6.95-3.71,9.1-16.13,17.99-32.4,27.8-48.08,4.25-6.81,4.7-12.01-.08-18.52-2.49-3.36-4.64-5.02-8.87-4.98-25.97,.16-51.95,.08-77.92,.08-1.36,0-2.69,.02-4.05-.06-2.03-.14-2.74-1.13-1.66-3,2.59-4.54,5.23-9.04,7.82-13.55,1.05-1.8,2.78-1.64,4.48-1.64,18.98-.01,37.96,0,56.94-.02h117.41l-16.6-28.33h-57.2c-.6-.08-1.22-.14-1.91-.13-37.6,.16-75.21,.16-112.81,.02-4.09-.02-6.48,1.3-8.47,4.8-9.95,17.61-20.1,35.07-30.17,52.58-.67,1.18-1.9,2.31-1.46,3.67,1.5,4.66,4.25,8.75,7.05,12.7,1.84,2.61,5.02,1.4,7.62,1.4,25.79,.08,51.6,.04,77.39,.04q6.79,0,3.3,6.06c-1.52,2.63-3.1,5.23-4.46,7.94-1.6,3.2-3.91,4.48-7.64,4.46-19.71-.1-39.45-.14-59.16-.08v-.02H12.76l16.25,28.3H97.65c.49,.06,1.01,.08,1.58,.08Z"/><path class="b" d="M298.59,110.44h-32.64c2.13,3.67,4.3,7.31,6.48,10.96,1.82,3.02,1.54,5.43-.16,8.37-13.53,23.3-27.03,46.6-40.32,70.06-2.13,3.79-4.66,4.98-8.85,4.96-31.69-.14-128.01-.08-159.71-.08-5.9,0-11.79,.06-17.71-.02-3.59-.04-5.29,.59-2.78,4.5,2.92,4.54,5.41,9.32,8.1,14,3.75,6.54,9.28,9.87,16.94,9.87,33.73-.06,132.06-.08,165.79,0,7.88,.02,13.47-3.36,17.34-10.09,16.71-29.03,33.41-58.09,50.21-87.08,4.11-7.11,4.07-13.9-.08-20.97-.87-1.5-1.74-2.98-2.61-4.48Z"/><path class="b" d="M68.21,141.03h32.74c-2.07-3.57-4.21-7.11-6.4-10.6-2.33-3.69-1.97-6.52,.14-10.15,13.27-22.65,26.46-45.38,39.35-68.28,2.49-4.42,5.25-5.92,10.29-5.88,36.93,.22,126.69,.12,163.6,.1,6.12,0,6.26-.3,3.16-5.71-2.35-4.09-4.72-8.17-6.99-12.3-3.83-7.03-9.77-10.49-17.71-10.52-33.55-.02-119.94-.04-153.49,.02-7.88,.02-13.68,3.48-17.69,10.52-16.43,28.81-33.04,57.54-49.7,86.23-4.32,7.42-4.4,14.51-.02,21.92,.91,1.54,1.82,3.08,2.72,4.64Z"/></g></svg>